<?xml version="1.0" encoding="UTF-8"?>
<svg id="Layer_1" data-name="Layer 1" xmlns="http://www.w3.org/2000/svg" viewBox="0 0 1325.72 711.37">
  <defs>
    <style>
      .cls-1 {
        stroke-width: 1.67px;
      }

      .cls-1, .cls-2, .cls-3, .cls-4, .cls-5, .cls-6, .cls-7, .cls-8, .cls-9, .cls-10, .cls-11 {
        fill: none;
        stroke: #000;
        stroke-miterlimit: 10;
      }

      .cls-2 {
        stroke-width: 1.68px;
      }

      .cls-3 {
        stroke-width: 1.47px;
      }

      .cls-4 {
        stroke-width: 1.96px;
      }

      .cls-5 {
        stroke-width: .5px;
      }

      .cls-6 {
        stroke-width: 2.22px;
      }

      .cls-7 {
        stroke-width: 2.25px;
      }

      .cls-8 {
        stroke-width: 2.25px;
      }

      .cls-9 {
        stroke-width: 2.33px;
      }

      .cls-10 {
        stroke-width: 2.08px;
      }

      .cls-11 {
        stroke-width: 2px;
      }
    </style>
  </defs>
  <g>
    <circle class="cls-11" cx="225.35" cy="195.52" r="90"/>
    <path class="cls-11" d="M868.69,118.45c13.57-8.21,29.48-12.93,46.5-12.93,13.64,0,26.57,3.03,38.16,8.47"/>
    <path class="cls-11" d="M837.17,240.4c-7.62-13.21-11.97-28.54-11.97-44.88s4.33-31.59,11.91-44.77"/>
    <path class="cls-11" d="M989.04,144.06c10.18,14.58,16.15,32.32,16.15,51.46,0,49.71-40.29,90-90,90-17.02,0-32.93-4.72-46.5-12.93"/>
    <path class="cls-7" d="M1014.28,217.1c-1.78,8.22-4.56,16.07-8.2,23.41"/>
    <path class="cls-11" d="M852.86,221.46c-3.33-7.99-5.16-16.75-5.16-25.94s1.84-17.96,5.17-25.95"/>
    <path class="cls-11" d="M973.87,162.14c5.61,9.85,8.82,21.24,8.82,33.38,0,37.28-30.22,67.5-67.5,67.5-11.07,0-21.53-2.67-30.75-7.39"/>
    <path class="cls-11" d="M884.45,135.41c9.22-4.73,19.67-7.39,30.75-7.39,8.06,0,15.8,1.41,22.96,4.01"/>
    <path class="cls-2" d="M971.58,202.93c-1.09,8.37-4,16.17-8.32,22.98"/>
    <path class="cls-11" d="M963.26,225.92c-15.58-12.36-25.57-31.46-25.57-52.9,0-37.28,30.22-67.5,67.5-67.5,24.98,0,46.79,13.57,58.46,33.74"/>
    <path class="cls-11" d="M1050.19,223.33c-11.94,10.69-27.71,17.19-45,17.19"/>
    <path class="cls-9" d="M938.15,132.02c4.14-6.76,9.27-12.84,15.19-18.04"/>
    <path class="cls-11" d="M971.57,202.93c-7.08-7.95-11.38-18.43-11.38-29.91,0-24.85,20.15-45,45-45,16.65,0,31.19,9.05,38.98,22.49"/>
    <path class="cls-11" d="M1044.17,195.53c-6.33,10.93-17.12,18.96-29.89,21.58"/>
    <path class="cls-3" d="M973.87,162.14c2.68-7.72,8.13-14.14,15.17-18.07"/>
    <path class="cls-11" d="M802.69,105.52c49.71,0,90,40.29,90,90s-40.29,90-90,90"/>
    <path class="cls-8" d="M884.45,255.63c-4.59,6.24-9.88,11.93-15.76,16.96"/>
    <path class="cls-8" d="M868.69,118.45c5.87,5.03,11.16,10.73,15.76,16.96"/>
    <path class="cls-11" d="M802.69,128.02c37.28,0,67.5,30.22,67.5,67.5s-30.22,67.5-67.5,67.5"/>
    <path class="cls-1" d="M852.86,221.46c-3.83,7.38-9.23,13.81-15.77,18.84"/>
    <path class="cls-1" d="M837.1,150.74c6.53,5.03,11.93,11.45,15.76,18.83"/>
    <circle class="cls-10" cx="225.35" cy="195.52" r="67.5"/>
    <circle class="cls-4" cx="225.35" cy="195.52" r="112.5"/>
    <line class="cls-5" x1="225.35" y1="299.52" x2="225.35" y2="91.52"/>
    <line class="cls-5" x1="114.82" y1="278.4" x2="335.87" y2="112.63"/>
    <line class="cls-5" x1="142.45" y1="306.03" x2="308.24" y2="85.01"/>
    <line class="cls-5" x1="113.5" y1="114.43" x2="337.19" y2="276.61"/>
    <line class="cls-5" x1="105.7" y1="126.46" x2="344.99" y2="264.58"/>
    <line class="cls-5" x1="423.93" y1="31.54" x2="271.21" y2="296.13"/>
    <line class="cls-5" x1="286.58" y1="31.54" x2="439.3" y2="296.13"/>
    <line class="cls-5" x1="264.78" y1="38.78" x2="417.5" y2="303.37"/>
    <line class="cls-5" x1="286.58" y1="31.54" x2="439.3" y2="296.13"/>
    <line class="cls-5" x1="371.11" y1="78.04" x2="232.98" y2="317.34"/>
    <line class="cls-5" x1="360.58" y1="249.76" x2="403.76" y2="324.58"/>
    <line class="cls-5" x1="139.35" y1="87.4" x2="311.34" y2="303.64"/>
    <line class="cls-5" x1="1193.35" y1="95.02" x2="1193.35" y2="303.02"/>
    <line class="cls-5" x1="135.35" y1="99.02" x2="135.35" y2="307.02"/>
    <line class="cls-5" x1="1192.85" y1="285.52" x2="134.85" y2="285.52"/>
    <line class="cls-5" x1="1192.85" y1="105.52" x2="134.85" y2="105.52"/>
    <line class="cls-5" x1="1192.85" y1="128.02" x2="134.85" y2="128.02"/>
    <line class="cls-5" x1="1192.85" y1="173.02" x2="134.85" y2="173.02"/>
    <line class="cls-5" x1="1192.85" y1="218.02" x2="134.85" y2="218.02"/>
    <line class="cls-5" x1="1192.85" y1="263.02" x2="134.85" y2="263.02"/>
    <line class="cls-5" x1="1192.85" y1="195.52" x2="134.85" y2="195.52"/>
    <line class="cls-5" x1="1192.85" y1="150.52" x2="134.85" y2="150.52"/>
    <line class="cls-5" x1="1192.85" y1="240.52" x2="134.85" y2="240.52"/>
    <line class="cls-5" x1="420.19" y1="308.02" x2="420.19" y2="83.02"/>
    <line class="cls-5" x1="780.19" y1="308.02" x2="780.19" y2="83.02"/>
    <line class="cls-5" x1="600.19" y1="308.02" x2="600.19" y2="83.02"/>
    <line class="cls-5" x1="960.19" y1="308.02" x2="960.19" y2="83.02"/>
    <line class="cls-5" x1="1140.19" y1="308.02" x2="1140.19" y2="83.02"/>
    <line class="cls-5" x1="577.69" y1="308.02" x2="577.69" y2="83.02"/>
    <line class="cls-5" x1="937.69" y1="308.02" x2="937.69" y2="83.02"/>
    <line class="cls-5" x1="757.69" y1="308.02" x2="757.69" y2="83.02"/>
    <line class="cls-5" x1="1117.69" y1="308.02" x2="1117.69" y2="83.02"/>
    <line class="cls-5" x1="532.69" y1="308.02" x2="532.69" y2="83.02"/>
    <line class="cls-5" x1="892.69" y1="308.02" x2="892.69" y2="83.02"/>
    <line class="cls-5" x1="712.69" y1="308.02" x2="712.69" y2="83.02"/>
    <line class="cls-5" x1="1072.69" y1="308.02" x2="1072.69" y2="83.02"/>
    <line class="cls-5" x1="487.69" y1="308.02" x2="487.69" y2="83.02"/>
    <line class="cls-5" x1="847.69" y1="308.02" x2="847.69" y2="83.02"/>
    <line class="cls-5" x1="667.69" y1="308.02" x2="667.69" y2="83.02"/>
    <line class="cls-5" x1="1027.69" y1="308.02" x2="1027.69" y2="83.02"/>
    <line class="cls-5" x1="442.69" y1="308.02" x2="442.69" y2="83.02"/>
    <line class="cls-5" x1="802.69" y1="308.02" x2="802.69" y2="83.02"/>
    <line class="cls-5" x1="622.69" y1="308.02" x2="622.69" y2="83.02"/>
    <line class="cls-5" x1="982.69" y1="308.02" x2="982.69" y2="83.02"/>
    <line class="cls-5" x1="510.19" y1="308.02" x2="510.19" y2="83.02"/>
    <line class="cls-5" x1="870.19" y1="308.02" x2="870.19" y2="83.02"/>
    <line class="cls-5" x1="690.19" y1="308.02" x2="690.19" y2="83.02"/>
    <line class="cls-5" x1="1050.19" y1="308.02" x2="1050.19" y2="83.02"/>
    <line class="cls-5" x1="555.19" y1="308.02" x2="555.19" y2="83.02"/>
    <line class="cls-5" x1="915.19" y1="308.02" x2="915.19" y2="83.02"/>
    <line class="cls-5" x1="735.19" y1="308.02" x2="735.19" y2="83.02"/>
    <line class="cls-5" x1="1095.19" y1="308.02" x2="1095.19" y2="83.02"/>
    <line class="cls-5" x1="465.19" y1="308.02" x2="465.19" y2="83.02"/>
    <line class="cls-5" x1="825.19" y1="308.02" x2="825.19" y2="83.02"/>
    <line class="cls-5" x1="645.19" y1="308.02" x2="645.19" y2="83.02"/>
    <line class="cls-5" x1="1005.19" y1="308.02" x2="1005.19" y2="83.02"/>
    <polyline class="cls-11" points="315.35 128.01 442.69 128.02 442.69 285.52 465.19 285.52 465.19 128.02 600.19 128.01 600.19 105.51 292.85 105.51"/>
    <rect class="cls-11" x="487.69" y="263.02" width="22.5" height="22.5"/>
    <rect class="cls-11" x="487.69" y="218.02" width="22.5" height="22.5"/>
    <rect class="cls-11" x="577.69" y="263.02" width="22.5" height="22.5"/>
    <rect class="cls-11" x="577.69" y="218.02" width="22.5" height="22.5"/>
    <polygon class="cls-11" points="555.19 285.52 532.69 285.52 532.69 173.02 487.69 173.02 487.69 150.52 600.19 150.52 600.19 173.02 555.19 173.02 555.19 285.52"/>
    <polygon class="cls-11" points="622.69 105.52 622.69 285.52 757.69 285.52 757.69 263.02 645.19 263.02 645.19 105.52 622.69 105.52"/>
    <polygon class="cls-11" points="667.69 105.51 667.85 240.52 757.69 240.52 757.69 218.02 690.19 218.02 690.19 173.02 735.19 173.02 735.19 150.52 690.19 150.52 690.19 128.02 757.69 128.02 757.69 105.51 667.69 105.51"/>
    <polyline class="cls-11" points="802.69 105.52 780.19 105.52 780.19 285.52 802.69 285.52"/>
    <line class="cls-11" x1="802.69" y1="263.02" x2="802.69" y2="128.02"/>
    <polyline class="cls-7" points="1050.19 223.33 1050.19 240.52 1072.69 240.52 1072.69 173.02 1027.69 173.02 1027.69 195.52 1044.16 195.52"/>
    <line class="cls-11" x1="1044.17" y1="150.51" x2="1063.65" y2="139.26"/>
    <path class="cls-11" d="M1137.18,139.27c-3.89-6.72-11.16-11.25-19.49-11.25-12.42,0-22.5,10.07-22.5,22.5s10.07,22.5,22.5,22.5h11.25c31.07,0,56.25,25.19,56.25,56.26s-25.18,56.25-56.25,56.25h-166.84c10.94-5.71,20.71-13.36,28.85-22.5h137.99c18.64,0,33.75-15.12,33.75-33.75s-15.11-33.75-33.75-33.75h-11.25c-24.85,0-45-20.15-45-45s20.15-45,45-45c16.66,0,31.2,9.05,38.98,22.5l-19.49,11.25Z"/>
  </g>
  <g>
    <path class="cls-11" d="M303.3,555.73c-15.56,26.9-44.65,45-77.96,45-49.71,0-90-40.29-90-90s40.29-90,90-90c29.44,0,55.59,14.14,72.01,36"/>
    <path class="cls-11" d="M868.69,433.66c13.57-8.21,29.48-12.93,46.5-12.93,13.64,0,26.57,3.03,38.16,8.47"/>
    <path class="cls-11" d="M837.17,555.62c-7.62-13.21-11.97-28.54-11.97-44.88s4.33-31.59,11.91-44.77"/>
    <path class="cls-11" d="M989.04,459.27c10.18,14.58,16.15,32.32,16.15,51.46,0,49.71-40.29,90-90,90-17.02,0-32.93-4.72-46.5-12.93"/>
    <path class="cls-7" d="M1014.28,532.32c-1.78,8.22-4.56,16.07-8.2,23.41"/>
    <path class="cls-11" d="M852.86,536.67c-3.33-7.99-5.16-16.75-5.16-25.94s1.84-17.96,5.17-25.95"/>
    <path class="cls-11" d="M973.87,477.35c5.61,9.85,8.82,21.24,8.82,33.38,0,37.28-30.22,67.5-67.5,67.5-11.07,0-21.53-2.67-30.75-7.39"/>
    <path class="cls-11" d="M884.45,450.63c9.22-4.73,19.67-7.39,30.75-7.39,8.06,0,15.8,1.41,22.96,4.01"/>
    <path class="cls-2" d="M971.58,518.15c-1.09,8.37-4,16.17-8.32,22.98"/>
    <path class="cls-11" d="M963.26,541.13c-15.58-12.36-25.57-31.46-25.57-52.9,0-37.28,30.22-67.5,67.5-67.5,24.98,0,46.79,13.57,58.46,33.74"/>
    <path class="cls-11" d="M1050.19,538.54c-11.94,10.69-27.71,17.19-45,17.19"/>
    <path class="cls-9" d="M938.15,447.24c4.14-6.76,9.27-12.84,15.19-18.04"/>
    <path class="cls-11" d="M971.57,518.15c-7.08-7.95-11.38-18.43-11.38-29.91,0-24.85,20.15-45,45-45,16.65,0,31.19,9.05,38.98,22.49"/>
    <path class="cls-11" d="M1044.17,510.74c-6.33,10.93-17.12,18.96-29.89,21.58"/>
    <path class="cls-3" d="M973.87,477.35c2.68-7.72,8.13-14.14,15.17-18.07"/>
    <path class="cls-11" d="M802.69,420.73c49.71,0,90,40.29,90,90s-40.29,90-90,90"/>
    <path class="cls-8" d="M884.45,570.84c-4.59,6.24-9.88,11.93-15.76,16.96"/>
    <path class="cls-8" d="M868.69,433.66c5.87,5.03,11.16,10.73,15.76,16.96"/>
    <path class="cls-11" d="M802.69,443.23c37.28,0,67.5,30.22,67.5,67.5s-30.22,67.5-67.5,67.5"/>
    <path class="cls-1" d="M852.86,536.68c-3.83,7.38-9.23,13.81-15.77,18.84"/>
    <path class="cls-1" d="M837.1,465.96c6.53,5.03,11.93,11.45,15.76,18.83"/>
    <path class="cls-10" d="M283.81,544.48c-11.67,20.18-33.49,33.75-58.47,33.75-37.28,0-67.5-30.22-67.5-67.5s30.22-67.5,67.5-67.5c22.08,0,41.69,10.6,54,27"/>
    <path class="cls-4" d="M292.85,420.72c8.52,6.4,16.1,13.98,22.5,22.5"/>
    <line class="cls-5" x1="225.35" y1="614.73" x2="225.35" y2="406.73"/>
    <line class="cls-5" x1="114.82" y1="593.62" x2="335.87" y2="427.85"/>
    <line class="cls-5" x1="142.45" y1="621.25" x2="308.24" y2="400.22"/>
    <line class="cls-5" x1="113.5" y1="429.65" x2="337.19" y2="591.82"/>
    <line class="cls-5" x1="105.7" y1="441.67" x2="344.99" y2="579.8"/>
    <line class="cls-5" x1="423.93" y1="346.75" x2="271.21" y2="611.34"/>
    <line class="cls-5" x1="286.58" y1="346.75" x2="439.3" y2="611.34"/>
    <line class="cls-5" x1="264.78" y1="354" x2="417.5" y2="618.58"/>
    <line class="cls-5" x1="292.97" y1="357.82" x2="445.69" y2="622.41"/>
    <line class="cls-5" x1="314.77" y1="350.58" x2="467.49" y2="615.17"/>
    <line class="cls-5" x1="371.11" y1="393.26" x2="232.98" y2="632.55"/>
    <line class="cls-5" x1="360.58" y1="564.98" x2="403.76" y2="639.79"/>
    <line class="cls-5" x1="139.35" y1="402.61" x2="311.34" y2="618.85"/>
    <line class="cls-5" x1="1193.35" y1="410.23" x2="1193.35" y2="618.23"/>
    <line class="cls-5" x1="135.35" y1="414.23" x2="135.35" y2="622.23"/>
    <line class="cls-5" x1="1192.85" y1="600.73" x2="134.85" y2="600.73"/>
    <line class="cls-5" x1="1192.85" y1="420.73" x2="134.85" y2="420.73"/>
    <line class="cls-5" x1="1192.85" y1="443.23" x2="134.85" y2="443.23"/>
    <line class="cls-5" x1="1192.85" y1="488.23" x2="134.85" y2="488.23"/>
    <line class="cls-5" x1="1192.85" y1="533.23" x2="134.85" y2="533.23"/>
    <line class="cls-5" x1="1192.85" y1="578.23" x2="134.85" y2="578.23"/>
    <line class="cls-5" x1="1192.85" y1="510.73" x2="134.85" y2="510.73"/>
    <line class="cls-5" x1="1192.85" y1="465.73" x2="134.85" y2="465.73"/>
    <line class="cls-5" x1="1192.85" y1="555.73" x2="134.85" y2="555.73"/>
    <line class="cls-5" x1="420.19" y1="623.23" x2="420.19" y2="398.23"/>
    <line class="cls-5" x1="780.19" y1="623.23" x2="780.19" y2="398.23"/>
    <line class="cls-5" x1="600.19" y1="623.23" x2="600.19" y2="398.23"/>
    <line class="cls-5" x1="960.19" y1="623.23" x2="960.19" y2="398.23"/>
    <line class="cls-5" x1="1140.19" y1="623.23" x2="1140.19" y2="398.23"/>
    <line class="cls-5" x1="577.69" y1="623.23" x2="577.69" y2="398.23"/>
    <line class="cls-5" x1="937.69" y1="623.23" x2="937.69" y2="398.23"/>
    <line class="cls-5" x1="757.69" y1="623.23" x2="757.69" y2="398.23"/>
    <line class="cls-5" x1="1117.69" y1="623.23" x2="1117.69" y2="398.23"/>
    <line class="cls-5" x1="532.69" y1="623.23" x2="532.69" y2="398.23"/>
    <line class="cls-5" x1="892.69" y1="623.23" x2="892.69" y2="398.23"/>
    <line class="cls-5" x1="712.69" y1="623.23" x2="712.69" y2="398.23"/>
    <line class="cls-5" x1="1072.69" y1="623.23" x2="1072.69" y2="398.23"/>
    <line class="cls-5" x1="487.69" y1="623.23" x2="487.69" y2="398.23"/>
    <line class="cls-5" x1="847.69" y1="623.23" x2="847.69" y2="398.23"/>
    <line class="cls-5" x1="667.69" y1="623.23" x2="667.69" y2="398.23"/>
    <line class="cls-5" x1="1027.69" y1="623.23" x2="1027.69" y2="398.23"/>
    <line class="cls-5" x1="442.69" y1="623.23" x2="442.69" y2="398.23"/>
    <line class="cls-5" x1="802.69" y1="623.23" x2="802.69" y2="398.23"/>
    <line class="cls-5" x1="622.69" y1="623.23" x2="622.69" y2="398.23"/>
    <line class="cls-5" x1="982.69" y1="623.23" x2="982.69" y2="398.23"/>
    <line class="cls-5" x1="510.19" y1="623.23" x2="510.19" y2="398.23"/>
    <line class="cls-5" x1="870.19" y1="623.23" x2="870.19" y2="398.23"/>
    <line class="cls-5" x1="690.19" y1="623.23" x2="690.19" y2="398.23"/>
    <line class="cls-5" x1="1050.19" y1="623.23" x2="1050.19" y2="398.23"/>
    <line class="cls-5" x1="555.19" y1="623.23" x2="555.19" y2="398.23"/>
    <line class="cls-5" x1="915.19" y1="623.23" x2="915.19" y2="398.23"/>
    <line class="cls-5" x1="735.19" y1="623.23" x2="735.19" y2="398.23"/>
    <line class="cls-5" x1="1095.19" y1="623.23" x2="1095.19" y2="398.23"/>
    <line class="cls-5" x1="465.19" y1="623.23" x2="465.19" y2="398.23"/>
    <line class="cls-5" x1="825.19" y1="623.23" x2="825.19" y2="398.23"/>
    <line class="cls-5" x1="645.19" y1="623.23" x2="645.19" y2="398.23"/>
    <line class="cls-5" x1="1005.19" y1="623.23" x2="1005.19" y2="398.23"/>
    <polyline class="cls-11" points="315.35 443.23 442.69 443.23 442.69 600.73 465.19 600.73 465.19 443.23 600.19 443.23 600.19 420.73 292.85 420.73"/>
    <rect class="cls-11" x="487.69" y="578.23" width="22.5" height="22.5"/>
    <rect class="cls-11" x="487.69" y="533.23" width="22.5" height="22.5"/>
    <rect class="cls-11" x="577.69" y="578.23" width="22.5" height="22.5"/>
    <rect class="cls-11" x="577.69" y="533.23" width="22.5" height="22.5"/>
    <polygon class="cls-11" points="555.19 600.73 532.69 600.73 532.69 488.23 487.69 488.23 487.69 465.73 600.19 465.73 600.19 488.23 555.19 488.23 555.19 600.73"/>
    <polygon class="cls-11" points="622.69 420.73 622.69 600.73 757.69 600.73 757.69 578.23 645.19 578.23 645.19 420.73 622.69 420.73"/>
    <polygon class="cls-11" points="667.69 420.73 667.85 555.73 757.69 555.73 757.69 533.23 690.19 533.23 690.19 488.23 735.19 488.23 735.19 465.73 690.19 465.73 690.19 443.23 757.69 443.23 757.69 420.73 667.69 420.73"/>
    <polyline class="cls-11" points="802.69 420.73 780.19 420.73 780.19 600.73 802.69 600.73"/>
    <line class="cls-11" x1="802.69" y1="578.23" x2="802.69" y2="443.23"/>
    <polyline class="cls-7" points="1050.19 538.54 1050.19 555.73 1072.69 555.73 1072.69 488.23 1027.69 488.23 1027.69 510.73 1044.16 510.73"/>
    <line class="cls-11" x1="1044.17" y1="465.73" x2="1063.65" y2="454.47"/>
    <path class="cls-11" d="M1005.79,578.24l134.41.05c18.64,0,33.75-15.11,33.75-33.75s-15.11-33.75-33.75-33.75h-11.25c-24.85,0-45-20.15-45-45s20.15-45,45-45c16.66,0,31.2,9.05,38.98,22.5l-19.49,11.25c-3.89-6.72-11.16-11.25-19.49-11.25-12.42,0-22.5,10.07-22.5,22.5s10.07,22.5,22.5,22.5h11.25c31.07,0,56.25,25.19,56.25,56.26s-25.18,56.25-56.25,56.25l-155.95-.05"/>
    <polyline class="cls-10" points="283.81 544.48 328.99 465.24 354.97 465.24 394.07 532.98 420.19 533.22 420.19 555.52 407.2 555.73 433.18 600.73 407.2 600.73 381.22 555.73 303.3 555.73"/>
    <polygon class="cls-10" points="316.29 533.23 342.26 488.23 368.24 533.23 316.29 533.23"/>
    <line class="cls-11" x1="297.35" y1="456.73" x2="279.35" y2="470.23"/>
    <path class="cls-6" d="M292.86,600.73c8.52-6.4,16.1-13.98,22.5-22.5h52.88s12.99,22.5,12.99,22.5h-88.36Z"/>
    <polygon class="cls-10" points="420.19 465.73 420.19 488.23 394.22 488.23 381.36 465.96 420.19 465.73"/>
    <path class="cls-11" d="M1005.89,578.1c-6.16,8.5-13.45,16.11-21.65,22.64"/>
  </g>
</svg>